<?xml version="1.0" standalone="no"?>
<!DOCTYPE svg PUBLIC "-//W3C//DTD SVG 20010904//EN"
 "http://www.w3.org/TR/2001/REC-SVG-20010904/DTD/svg10.dtd">
<svg version="1.0" xmlns="http://www.w3.org/2000/svg"
 width="500.000000pt" height="500.000000pt" viewBox="0 0 500.000000 500.000000"
 preserveAspectRatio="xMidYMid meet">
<metadata>
Created by potrace 1.16, written by Peter Selinger 2001-2019
</metadata>
<g transform="translate(0.000000,500.000000) scale(0.100000,-0.100000)"
fill="#000000" stroke="none">
<path d="M860 4068 c-19 -5 -58 -25 -87 -45 -82 -54 -134 -129 -180 -258 l-28
-80 -3 -631 -3 -632 -107 -4 c-88 -3 -116 -8 -157 -28 -97 -47 -185 -163 -202
-265 l-6 -35 237 0 236 0 0 -355 c0 -284 3 -371 16 -433 32 -160 129 -304 242
-359 l57 -28 624 -3 c699 -3 686 -4 781 67 71 53 126 129 150 208 11 36 20 67
20 69 0 2 -315 4 -700 4 l-700 0 0 415 0 415 415 0 415 0 0 165 0 165 -415 0
-415 0 2 658 3 657 603 3 602 2 0 170 0 170 -682 -1 c-419 0 -696 -5 -718 -11z"/>
<path d="M2690 3096 c0 -3 171 -232 380 -510 210 -279 383 -512 385 -519 3 -6
-95 -140 -216 -297 -121 -157 -295 -382 -387 -500 -91 -118 -192 -248 -224
-287 l-58 -73 260 0 259 0 71 91 c39 50 179 235 312 411 132 175 244 315 248
311 13 -15 334 -438 475 -626 l140 -187 150 2 c139 3 154 5 208 30 102 48 191
161 216 276 l9 42 -148 0 -149 0 -292 368 c-161 202 -307 385 -325 407 l-33
40 192 255 c106 140 276 365 378 500 102 135 189 251 193 258 6 9 -43 12 -229
12 l-235 0 -84 -107 c-47 -60 -168 -216 -271 -348 -102 -132 -190 -240 -194
-240 -8 0 -68 73 -424 523 l-137 172 -235 0 c-129 0 -235 -2 -235 -4z"/>
</g>
</svg>
