<?xml version="1.0" encoding="UTF-8"?>
<svg version="1.1" viewBox="0 0 2000 2000" width="500" height="500" xmlns="http://www.w3.org/2000/svg">
<path transform="translate(372,365)" d="m0 0h533l2 1v140l-1 1-482 1-1 521h327l6 1v134l-332 1-1 329h558l-1 11-6 24-9 21-10 18-8 11-9 11-13 13-16 12-18 10-15 6-16 4-15 2h-476l-19-3-16-5-16-8-11-7-13-10-13-12-12-14-12-18-9-16-10-23-7-22-5-21-3-20-1-12-1-41v-221l1-19-189-1-1-3 6-27 7-19 9-17 12-17 11-12 12-11 18-12 17-8 15-5 15-3 12-1h55v-436l1-37 2-20 5-26 7-24 9-22 12-23 12-17 9-11 14-14 13-10 18-11 11-5 16-5 11-2z" fill="#0389FE"/>
<path transform="translate(1070,758)" d="m0 0h194l7 6 10 13 11 14 12 15 22 28 12 15 11 14 9 11 11 14 20 25 11 14 12 15 11 14 10 13 11 14 12 15 22 28 9 11 4-2 10-13 11-14 10-13 13-17 14-18 30-39 14-18 13-17 8-10 13-17 10-13 11-14 14-18 10-13 11-14 10-13 11-14 2-2h196l-2 4-14 19-10 13-13 17-9 12-10 13-12 16-13 17-12 16-16 21-12 16-16 21-69 92-10 13-29 38-12 16-11 14-9 12-16 21-13 18-1 4 11 13 13 17 13 16 11 14 9 11 11 14 14 17 11 14 13 16 10 13 13 16 33 42 12 15 11 14 13 16 13 17 11 13 7 9 11 14 13 16 4 5 118 1 1 4-5 23-7 21-8 16-8 14-10 13-9 10-8 8-16 12-16 9-16 7-14 4-14 2h-105l-7-8-15-20-13-17-16-21-12-16-14-18-12-16-16-21-15-20-16-21-21-28-16-21-14-19-10-13-12-16-10-13-9-12-10-13-8-11h-3l-48 64-16 21-14 19-29 38-12 16-10 13-9 12-10 13-15 20-10 13-12 16-10 13-15 20-10 13-14 19-10 13-2 1h-212l2-5 8-9 12-16 20-26 14-18 20-26 14-18 10-13 8-10 12-16 12-15 10-13 42-54 10-13 14-18 16-21 14-18 26-34 12-15 20-26 13-16 9-12 22-28 9-12 7-9-2-4-14-19-16-21-9-12-29-38-16-21-39-52-14-19-16-21-14-19-13-17-27-36-14-18-12-16-16-21-14-19-16-21-24-32-7-9z" fill="#0389FE"/>
</svg>
